<?xml version="1.0" encoding="UTF-8" standalone="no" ?>
<!-- Created with Inkscape (http://www.inkscape.org/) -->

<svg xmlns:dc="http://purl.org/dc/elements/1.1/" xmlns:cc="http://creativecommons.org/ns#" xmlns:rdf="http://www.w3.org/1999/02/22-rdf-syntax-ns#" xmlns:svg="http://www.w3.org/2000/svg" xmlns="http://www.w3.org/2000/svg" xmlns:sodipodi="http://sodipodi.sourceforge.net/DTD/sodipodi-0.dtd" xmlns:inkscape="http://www.inkscape.org/namespaces/inkscape" version="1.1" id="svg891" xml:space="preserve" width="176" height="186" viewBox="260 145 200 510" sodipodi:docname="Logo semcomp.svg" inkscape:version="0.92.4 (5da689c313, 2019-01-14)">
  <g id="g899" inkscape:groupmode="layer" inkscape:label="Logo semcomp" transform="matrix(1.3333333,0,0,-1.3333333,0,821.14667)">
    <g id="g901">
      <g id="g903" clip-path="url(#clipPath907)">
        <g id="g909" transform="translate(271.1657,357.4517)">
          <path d="m 0,0 c 22.68,0 41.066,-18.386 41.066,-41.066 0,-22.68 -18.386,-41.066 -41.066,-41.066 -22.68,0 -41.066,18.386 -41.066,41.066 C -41.066,-18.386 -22.68,0 0,0" style="fill:#000000;fill-opacity:1;fill-rule:nonzero;stroke:none" id="path911" inkscape:connector-curvature="0" />
        </g>
        <g id="g913" transform="translate(271.1662,126.6856)">
          <path d="m 0,0 c -24.581,0 -49.162,4.845 -72.557,14.535 -23.119,9.577 -43.814,23.404 -61.509,41.1 -17.695,17.695 -31.523,38.39 -41.099,61.51 -3.31,7.99 0.485,17.149 8.474,20.459 7.992,3.31 17.151,-0.485 20.46,-8.474 16.178,-39.061 46.6,-69.482 85.66,-85.661 80.631,-33.398 173.403,5.028 206.802,85.661 1.795,4.333 1.795,9.105 0,13.438 -1.795,4.334 -5.17,7.708 -9.503,9.503 -4.334,1.795 -9.108,1.794 -13.439,0 -4.334,-1.795 -7.708,-5.169 -9.504,-9.503 -12.589,-30.392 -36.26,-54.064 -66.654,-66.654 -30.393,-12.588 -63.87,-12.588 -94.263,0 -30.394,12.59 -54.066,36.261 -66.654,66.654 -7.015,16.935 -10.122,34.825 -9.319,52.607 -8.399,-1.214 -17.218,-0.255 -25.609,3.22 -12.061,4.996 -21.455,14.391 -26.451,26.452 -4.997,12.062 -4.997,25.347 0,37.409 9.576,23.12 23.404,43.815 41.099,61.51 17.695,17.695 38.39,31.523 61.51,41.1 46.788,19.379 98.322,19.381 145.112,-10e-4 46.788,-19.38 83.229,-55.821 102.609,-102.609 3.309,-7.99 -0.485,-17.15 -8.475,-20.459 -7.988,-3.311 -17.15,0.483 -20.459,8.474 -16.179,39.06 -46.601,69.482 -85.661,85.661 -39.06,16.18 -82.083,16.179 -121.14,0 -39.061,-16.179 -69.483,-46.601 -85.661,-85.661 -1.796,-4.333 -1.796,-9.106 0,-13.439 1.794,-4.333 5.169,-7.708 9.503,-9.503 4.333,-1.795 9.107,-1.795 13.439,0 4.321,1.79 7.69,5.152 9.488,9.468 0.005,0.011 0.011,0.024 0.015,0.035 0.006,0.014 0.011,0.027 0.017,0.041 26.003,62.71 98.175,92.596 160.9,66.614 30.393,-12.589 54.065,-36.26 66.655,-66.654 3.31,-7.99 -0.484,-17.15 -8.474,-20.46 -7.989,-3.309 -17.149,0.485 -20.46,8.474 -9.388,22.666 -27.041,40.318 -49.706,49.706 -46.785,19.379 -100.618,-2.919 -119.998,-49.706 -0.006,-0.015 -0.012,-0.029 -0.019,-0.044 -9.369,-22.653 -9.364,-47.6 0.018,-70.25 9.388,-22.665 27.041,-40.316 49.706,-49.705 22.665,-9.389 47.629,-9.387 70.294,0 22.664,9.389 40.317,27.04 49.704,49.706 10.314,24.9 38.965,36.764 63.862,26.451 12.061,-4.996 21.455,-14.39 26.452,-26.451 4.996,-12.062 4.996,-25.348 0,-37.409 C 155.785,70.356 119.344,33.916 72.556,14.535 49.162,4.845 24.58,0 0,0" style="fill:#000000;fill-opacity:1;fill-rule:nonzero;stroke:none" id="path915" inkscape:connector-curvature="0" />
        </g>
      </g>
    </g>
  </g>
</svg>