<?xml version="1.0" encoding="utf-8"?>
<!-- Generator: Adobe Illustrator 22.1.0, SVG Export Plug-In . SVG Version: 6.00 Build 0)  -->
<svg version="1.1" id="Camada_1" xmlns="http://www.w3.org/2000/svg" xmlns:xlink="http://www.w3.org/1999/xlink" x="0px" y="0px"
	 viewBox="313 213 1080 170" width="360" height="57" xml:space="preserve">
<style type="text/css">
	.st0{fill:#ffffff;}
</style>
<g id="XMLID_3_">
	<g id="XMLID_1_" class="st0">
		<path id="XMLID_14_" d="M331.8,288.3c-5.5-2-9.2-4.2-11.4-6.4c-4.2-4.2-6.4-9.2-6.4-15.2c0-5.9,2.2-11.1,6.6-15.6
			c8.7-8.8,19.9-13.2,33.8-13.2c15,0,27.9,6,38.6,18.1c1,1.1,1.4,2.6,1.4,4.2c0,2-0.7,3.7-2.1,5.1c-1.4,1.4-3.1,2.1-5.1,2.1
			c-2,0-3.6-0.6-4.8-1.9c-1.2-1.2-2.1-2.2-2.6-2.7c-7-7-15.5-10.5-25.4-10.5s-17.9,3.1-23.8,9.3c-1.4,1.7-2.2,3.8-2.2,6.2
			c0.2,2.8,1.6,4.7,4.4,5.7l44.2,14.7c5.5,2,9.2,4.2,11.4,6.4c4.2,4.2,6.4,9.2,6.4,15.2c0,6-2.2,11.1-6.6,15.6
			c-8.7,8.8-19.9,13.2-33.8,13.2c-15.1,0-28-6-38.6-18.1c-0.9-1.3-1.4-2.6-1.4-4.2c0-2,0.7-3.7,2.1-5.1s3.1-2.1,5.1-2.1
			s3.5,0.6,4.8,1.9c1.2,1.3,2.1,2.2,2.6,2.7c7,7,15.5,10.5,25.4,10.5c9.9,0,17.9-3.1,23.8-9.3c1.4-1.7,2.2-3.8,2.2-6.2
			c-0.2-2.8-1.6-4.7-4.4-5.7L331.8,288.3L331.8,288.3z"/>
		<path id="XMLID_12_" d="M487.4,314.2c2,0,3.7,0.7,5.1,2.1c1.4,1.4,2.1,3.1,2.1,5.1s-0.7,3.7-2.1,5.1c-9.3,8.1-20.2,12.2-32.8,12.2
			c-13.9,0-25.7-4.9-35.6-14.8c-9.8-9.8-14.8-21.7-14.8-35.6c0-13.9,4.9-25.7,14.8-35.6s21.7-14.8,35.6-14.8
			c13.9,0,25.7,4.9,35.6,14.8c9.8,9.8,14.8,21.7,14.8,35.6c0,2-0.7,3.7-2.1,5.1s-3.1,2.1-5.1,2.1h-78.5c1.3,6.9,4.6,13,9.9,18.3
			c7,7,15.5,10.5,25.4,10.5c9,0,16.7-2.8,23.2-8.5C484.2,314.7,485.7,314.2,487.4,314.2L487.4,314.2z M495,281.1
			c-1.3-6.9-4.6-13-9.9-18.3c-7-7-15.5-10.5-25.4-10.5c-9.9,0-18.4,3.5-25.4,10.5c-5.2,5.2-8.5,11.4-9.9,18.3H495L495,281.1z"/>
		<path id="XMLID_10_" d="M538.8,331.4c0,2-0.7,3.7-2.1,5.1c-1.4,1.4-3.1,2.1-5.1,2.1c-2,0-3.7-0.7-5.1-2.1
			c-1.4-1.4-2.1-3.1-2.1-5.1v-86.3c0-2,0.7-3.7,2.1-5.1s3.1-2.1,5.1-2.1c2,0,3.7,0.7,5.1,2.1s2.1,3.1,2.1,5.1v1.9
			c7.1-6.1,15.5-9.1,25.2-9.1c10.9,0,20.2,3.9,28,11.6c1.6,1.6,3.1,3.3,4.4,5.1c1.3-1.8,2.8-3.5,4.4-5.1c7.7-7.7,17-11.6,28-11.6
			c10.9,0,20.2,3.9,28,11.6c7.7,7.7,11.6,17,11.6,28v53.9c0,2-0.7,3.7-2.1,5.1s-3.1,2.1-5.1,2.1s-3.7-0.7-5.1-2.1
			c-1.4-1.4-2.1-3.1-2.1-5.1v-53.9c0-7-2.4-12.9-7.4-17.8c-4.9-4.9-10.8-7.4-17.8-7.4c-7,0-12.9,2.4-17.8,7.4
			c-4.9,4.9-7.4,10.8-7.4,17.8v53.9c0,2-0.7,3.7-2.1,5.1s-3.1,2.1-5.1,2.1s-3.7-0.7-5.1-2.1c-1.4-1.4-2.1-3.1-2.1-5.1v-53.9
			c0-7-2.4-12.9-7.4-17.8s-10.8-7.4-17.8-7.4s-12.9,2.4-17.8,7.4c-4.9,4.9-7.4,10.8-7.4,17.8v53.9H538.8L538.8,331.4z"/>
		<path id="XMLID_8_" d="M760.9,314c2,0,3.7,0.7,5.1,2.1s2.1,3.1,2.1,5.1s-0.7,3.8-2.3,5.3c-9.3,8.1-20.2,12.2-32.8,12.2
			c-13.9,0-25.7-4.9-35.6-14.8c-9.8-9.8-14.8-21.7-14.8-35.6c0-13.9,4.9-25.7,14.8-35.6S719.1,238,733,238c12.6,0,23.5,4,32.8,12.2
			c1.7,1.5,2.5,3.3,2.5,5.6c0,2-0.7,3.7-2.1,5.1c-1.4,1.4-3.1,2.1-5.1,2.1c-1.7,0-3.3-0.5-4.6-1.6c-6.7-5.9-14.6-8.9-23.6-8.9
			c-9.9,0-18.4,3.5-25.4,10.5c-7,7-10.5,15.5-10.5,25.4s3.5,18.4,10.5,25.4c7,7,15.5,10.5,25.4,10.5c9,0,16.8-3,23.5-8.8
			C757.7,314.5,759.2,314,760.9,314L760.9,314z"/>
		<path id="XMLID_7_" d="M884.1,288.3c0,13.9-4.9,25.7-14.8,35.6c-9.8,9.8-21.7,14.8-35.6,14.8c-13.9,0-25.7-4.9-35.6-14.8
			c-9.8-9.8-14.8-21.7-14.8-35.6s4.9-25.7,14.8-35.6c9.8-9.8,21.7-14.8,35.6-14.8c13.9,0,25.7,4.9,35.6,14.8
			C879.1,262.5,884.1,274.3,884.1,288.3L884.1,288.3z M833.7,252.3c-9.9,0-18.4,3.5-25.4,10.5c-7,7-10.5,15.5-10.5,25.4
			s3.5,18.4,10.5,25.4c7,7,15.5,10.5,25.4,10.5s18.4-3.5,25.4-10.5c7-7,10.5-15.5,10.5-25.4s-3.5-18.4-10.5-25.4
			C852.1,255.8,843.7,252.3,833.7,252.3z"/>
		<path id="XMLID_5_" d="M912.8,331.4c0,2-0.7,3.7-2.1,5.1c-1.4,1.4-3.1,2.1-5.1,2.1s-3.7-0.7-5.1-2.1c-1.4-1.4-2.1-3.1-2.1-5.1
			v-86.3c0-2,0.7-3.7,2.1-5.1c1.4-1.4,3.1-2.1,5.1-2.1s3.7,0.7,5.1,2.1c1.4,1.4,2.1,3.1,2.1,5.1v1.9c7.1-6.1,15.5-9.1,25.2-9.1
			c10.9,0,20.2,3.9,28,11.6c1.6,1.6,3.1,3.3,4.4,5.1c1.3-1.8,2.8-3.5,4.4-5.1c7.7-7.7,17-11.6,28-11.6c10.9,0,20.2,3.9,28,11.6
			c7.7,7.7,11.6,17,11.6,28v53.9c0,2-0.7,3.7-2.1,5.1s-3.1,2.1-5.1,2.1c-2,0-3.7-0.7-5.1-2.1c-1.4-1.4-2.1-3.1-2.1-5.1v-53.9
			c0-7-2.4-12.9-7.4-17.8c-4.9-4.9-10.8-7.4-17.8-7.4c-7,0-12.9,2.4-17.8,7.4s-7.4,10.8-7.4,17.8v53.9c0,2-0.7,3.7-2.1,5.1
			c-1.4,1.4-3.1,2.1-5.1,2.1s-3.7-0.7-5.1-2.1c-1.4-1.4-2.1-3.1-2.1-5.1v-53.9c0-7-2.4-12.9-7.4-17.8c-4.9-4.9-10.8-7.4-17.8-7.4
			c-7,0-12.9,2.4-17.8,7.4c-4.9,4.9-7.4,10.8-7.4,17.8v53.9H912.8L912.8,331.4z"/>
		<path id="XMLID_2_" d="M1071.1,374.6c0,2-0.7,3.7-2.1,5.1c-1.4,1.4-3.1,2.1-5.1,2.1c-2,0-3.7-0.7-5.1-2.1
			c-1.4-1.4-2.1-3.1-2.1-5.1v-86.3c0-13.9,4.9-25.7,14.8-35.6c9.8-9.8,21.7-14.8,35.6-14.8s25.7,4.9,35.6,14.8
			c9.8,9.8,14.8,21.7,14.8,35.6s-4.9,25.7-14.8,35.6c-9.8,9.8-21.7,14.8-35.6,14.8s-25.7-4.9-35.6-14.8l-0.3-0.3L1071.1,374.6
			L1071.1,374.6z M1071.1,288.3c0,9.9,3.5,18.4,10.5,25.4c7,7,15.5,10.5,25.4,10.5c9.9,0,18.4-3.5,25.4-10.5
			c7-7,10.5-15.5,10.5-25.4s-3.5-18.4-10.5-25.4c-7-7-15.5-10.5-25.4-10.5c-9.9,0-18.4,3.5-25.4,10.5
			C1074.6,269.8,1071.1,278.3,1071.1,288.3L1071.1,288.3z"/>
	</g>
	<g id="XMLID_23_" class="st0">
		<path id="XMLID_9_" d="M1191.4,337.4c-1.9-1.6-2.8-3.6-2.8-5.9c0-2.4,0.9-4.3,2.7-5.9l55.7-54.3c8.2-7.9,12.3-14.7,12.3-20.5
			c0-7.1-2.2-12.8-6.6-17c-4.3-4.2-10.4-6.4-17.9-6.4c-4.9,0-9.3,1-13.3,3.2c-4,2.1-7.2,5-9.5,8.6c-2.3,3.6-3.4,7.5-3.4,11.6
			c0,2.2-0.9,4.1-2.8,5.7c-1.9,1.6-4.3,2.4-7.1,2.4c-2.7,0-5.1-0.8-7.1-2.4c-1.9-1.6-3-3.5-3-5.7c0-7.3,2-13.9,6.1-19.8
			c4-5.9,9.6-10.5,16.5-13.9c7-3.4,14.9-5,23.6-5c8.8,0,16.4,1.6,23,4.7c6.6,3.2,11.7,7.7,15.3,13.5c3.6,5.8,5.4,12.7,5.4,20.5
			c0,4.8-1.7,9.8-5,15c-3.3,5.2-7.5,10.1-12.4,14.8l-44.9,42.6h54.9c2.8,0,5.3,0.8,7.3,2.4c1.9,1.6,3,3.6,3,5.9c0,2.3-1,4.2-3,5.9
			c-1.9,1.6-4.3,2.4-7.3,2.4h-72.5C1195.6,339.9,1193.2,339,1191.4,337.4z"/>
		<path id="XMLID_21_" d="M1301.4,337.4c-1.9-1.6-2.8-3.6-2.8-5.9c0-2.4,0.9-4.3,2.7-5.9l55.7-54.3c8.2-7.9,12.3-14.7,12.3-20.5
			c0-7.1-2.2-12.8-6.6-17c-4.3-4.2-10.4-6.4-17.9-6.4c-4.9,0-9.3,1-13.3,3.2c-4,2.1-7.2,5-9.5,8.6c-2.3,3.6-3.4,7.5-3.4,11.6
			c0,2.2-0.9,4.1-2.8,5.7c-1.9,1.6-4.3,2.4-7.1,2.4c-2.7,0-5.1-0.8-7.1-2.4c-1.9-1.6-3-3.5-3-5.7c0-7.3,2-13.9,6.1-19.8
			c4-5.9,9.6-10.5,16.5-13.9c7-3.4,14.9-5,23.6-5c8.8,0,16.4,1.6,23,4.7c6.6,3.2,11.7,7.7,15.3,13.5c3.6,5.8,5.4,12.7,5.4,20.5
			c0,4.8-1.7,9.8-5,15c-3.3,5.2-7.5,10.1-12.4,14.8l-44.9,42.6h54.9c2.8,0,5.3,0.8,7.3,2.4c1.9,1.6,3,3.6,3,5.9c0,2.3-1,4.2-3,5.9
			c-1.9,1.6-4.3,2.4-7.3,2.4h-72.5C1305.6,339.9,1303.2,339,1301.4,337.4z"/>
	</g>
</g>
</svg>
